<svg xmlns="http://www.w3.org/2000/svg" viewBox="0 0 24 24" fill="#FFFFFF" width="20px" height="20px">
    <path d="M0 0h24v24H0z" fill="none"/>
    <path d="M12 2C8.13 2 4.73 3.5 2.46 6H7v2H3.17C2.58 8 2 8.58 2 9.17V13h2V9.17C4 8.88 4.11 8.6 4.29 8.38 6.22 5.72 9.04 4 12 4c2.96 0 5.78 1.72 7.71 4.38.18.22.29.5.29.79V13h2V9.17c0-.59-.58-1.17-1.17-1.17H17V6h4.54C19.27 3.5 15.87 2 12 2zm0 9c-2.21 0-4 1.79-4 4 0 .78.26 1.5.69 2.09L5.38 21h2.83L10 18.21V22h4v-3.79L16.79 21h2.83l-3.31-3.91c.43-.59.69-1.31.69-2.09 0-2.21-1.79-4-4-4z"/>
</svg>
